<?xml version="1.0" encoding="UTF-8" standalone="no"?>
<svg
   version="1.1"
   id="Layer_1"
   x="0px"
   y="0px"
   width="88.934px"
   height="121.795px"
   viewBox="0 0 88.934 121.795"
   enable-background="new 0 0 88.934 121.795"
   xml:space="preserve"
   sodipodi:docname="trigger.svgz"
   xmlns:inkscape="http://www.inkscape.org/namespaces/inkscape"
   xmlns:sodipodi="http://sodipodi.sourceforge.net/DTD/sodipodi-0.dtd"
   xmlns="http://www.w3.org/2000/svg"
   xmlns:svg="http://www.w3.org/2000/svg"><defs
   id="defs17" /><sodipodi:namedview
   id="namedview17"
   pagecolor="#ffffff"
   bordercolor="#000000"
   borderopacity="0.25"
   inkscape:showpageshadow="2"
   inkscape:pageopacity="0.0"
   inkscape:pagecheckerboard="0"
   inkscape:deskcolor="#d1d1d1" />
	<style
   type="text/css"
   id="style1">
		.st0{fill:#8be9fd;}
		.st1{fill:#69AFBE;}
	</style>
	<g
   id="LT_Pressed">
		<path
   class="st1"
   d="M74.753,56.076v-0.668C74.768,55.821,74.753,56.076,74.753,56.076z"
   id="path1" />
		<path
   class="st1"
   d="M49.715,5.466c0.401-0.319,0.805-0.618,1.211-0.899l2.322,109.995L0,121.795   C12.067,4.974,42.959,10.762,49.715,5.466z"
   id="path2" />
		<path
   class="st0"
   d="M76.741,0.142c10.833,0.403,12.069,11.439,12.193,15.19v1.227c0,0-2.901,40.716,0,93.094   c-9.926,2.289-38.539,5.298-38.539,5.298s-0.051-20.914-0.68-50.596c-0.811-37.501,1.211-59.788,1.211-59.788   C57.343,0.091,64.492-0.307,76.741,0.142z"
   id="path3" />
	</g>
	<g
   id="g3">
	</g>
	<g
   id="g4">
	</g>
	<g
   id="g5">
	</g>
	<g
   id="g6">
	</g>
	<g
   id="g7">
	</g>
	<g
   id="g8">
	</g>
	<g
   id="g9">
	</g>
	<g
   id="g10">
	</g>
	<g
   id="g11">
	</g>
	<g
   id="g12">
	</g>
	<g
   id="g13">
	</g>
	<g
   id="g14">
	</g>
	<g
   id="g15">
	</g>
	<g
   id="g16">
	</g>
	<g
   id="g17">
	</g>
</svg>
