<svg version="1.2" xmlns="http://www.w3.org/2000/svg" viewBox="0 0 806 599" width="806" height="599">
	<style>
		.s0 { fill: #282a36 } 
		.s1 { fill: #44475a } 
		.s2 { fill: #ff79c6 } 
		.s3 { fill: #121212 } 
		.s4 { fill: #000000 } 
		.s5 { fill: #8e6fbb } 
		.s6 { fill: #bd93f9 } 
		.s7 { fill: #ff79c6;stroke: #000000;stroke-miterlimit:10;stroke-width: 2 } 
		.s8 { opacity: .1;fill: #e6e6e6 } 
		.s9 { opacity: .08;fill: #000000 } 
		.s10 { opacity: .22;fill: #000000 } 
	</style>
	<g id="g116">
		<g id="g55">
			<g id="g54">
				<g id="g53">
					<path id="path39" class="s0" d="m801.3 418.8c-2.9-15.5-17.7-102.5-32-144.6-9.4-27.7-13.1-53-17-64.9-12-35.7-33-65.7-33-65.7 0 0-9.5-13.1-10.1-16.3-0.6-3.3-4.7-8.6-4.7-8.6 0 0-17.4-5.7-62.3-5.7-44.9 0-53.7 5-53.7 5 0 0-2.4 2.9-5.9 4.8-3.5 1.8-11.7 1.7-11.7 1.7h-33.4c0 0-0.6-0.1-0.9 0.3-0.4 0.4-0.6 2-0.6 2h-133-133.1c0 0-0.3-1.7-0.6-2-0.4-0.4-0.9-0.3-0.9-0.3h-33.4c0 0-8.2 0.2-11.7-1.7-3.5-1.8-5.9-4.8-5.9-4.8 0 0-8.8-5-53.7-5-44.8 0-62.3 5.7-62.3 5.7 0 0-4.1 5.3-4.7 8.6-0.6 3.3-10.1 16.3-10.1 16.3 0 0-21 30-33 65.7-4 11.9-7.7 37.2-17 64.9-14.3 42.1-29.1 129.1-32 144.6-4.3 23.2-4.7 90.1-4.7 90.1 0 0 4.5 53.4 36.2 74.9 31.7 21.5 56.7 14 56.7 14 0 0 33.1-8.2 57.8-41.9 24.7-33.7 56.6-129.2 56.6-129.2 0 0 2.2-3 5.7-5.3 3.5-2.3 6.3-2.6 6.3-2.6l183.7 0.1 183.7-0.1c0 0 2.8 0.3 6.3 2.6 3.5 2.3 5.7 5.3 5.7 5.3 0 0 31.9 95.4 56.6 129.2 24.7 33.8 57.8 41.9 57.8 41.9 0 0 25 7.5 56.7-14 31.7-21.5 36.2-74.9 36.2-74.9 0 0-0.2-67-4.6-90.1z"/>
					<g id="g42">
						<g id="g41">
							<g id="g40">
								<path id="path40" class="s1" d="m36.6 276.1c9.4-27.7 13.1-53 17-64.9 12-35.7 33-65.7 33-65.7 0 0 9.5-13.1 10.1-16.3 0.6-3.3 4.7-8.6 4.7-8.6 0 0 17.4-5.7 62.3-5.7 44.8 0 53.7 5 53.7 5 0 0 2.4 2.9 5.9 4.8 3.5 1.8 11.7 1.7 11.7 1.7h33.4c0 0 0.6-0.1 0.9 0.3 0.4 0.4 0.6 2 0.6 2h133.1 133.1c0 0 0.3-1.7 0.6-2 0.4-0.4 0.9-0.3 0.9-0.3h33.4c0 0 8.2 0.2 11.7-1.7 3.5-1.8 5.9-4.8 5.9-4.8 0 0 8.8-5 53.7-5 44.9 0 62.3 5.7 62.3 5.7 0 0 4.1 5.3 4.7 8.6 0.6 3.3 10.1 16.3 10.1 16.3 0 0 21 30 33 65.7 4 11.9 7.7 37.2 17 64.9 14.3 42.1 29.1 129.1 32 144.6 3.9 20.9 4.6 77.3 4.7 88.3 0-0.1 0-0.1 0-0.1 0 0-0.3-66.9-4.7-90.1-2.9-15.5-17.7-102.5-32-144.6-9.4-27.7-13.1-53-17-64.9-12-35.7-33-65.7-33-65.7 0 0-9.5-13.1-10.1-16.3-0.6-3.3-4.7-8.6-4.7-8.6 0 0-17.4-5.7-62.3-5.7-44.9 0-53.7 5-53.7 5 0 0-2.4 2.9-5.9 4.8-3.5 1.8-11.7 1.7-11.7 1.7h-33.4c0 0-0.6-0.1-0.9 0.3-0.4 0.4-0.6 2-0.6 2h-133.1-133.1c0 0-0.3-1.7-0.6-2-0.4-0.4-0.9-0.3-0.9-0.3h-33.4c0 0-8.2 0.2-11.7-1.7-3.5-1.8-5.9-4.8-5.9-4.8 0 0-8.8-5-53.7-5-44.8 0-62.3 5.7-62.3 5.7 0 0-4.1 5.3-4.7 8.6-0.6 3.3-10.1 16.3-10.1 16.3 0 0-21 30-33 65.7-4 11.9-7.7 37.2-17 64.9-14.3 42.1-29.1 129.1-32 144.6-4.3 23.2-4.7 90.1-4.7 90.1v0.1c0.1-10.9 0.7-67.4 4.7-88.3 3-15.4 17.7-102.5 32-144.6z"/>
							</g>
						</g>
					</g>
					<path id="path42" class="s1" d="m351.2 360.1c0-42.2-34.3-76.5-76.5-76.5-42.2 0-76.5 34.3-76.5 76.5 0 0.7 0 1.3 0.1 2 0 0.7-0.1 1.3-0.1 2 0 42.2 34.3 76.5 76.5 76.5 42.2 0 76.5-34.3 76.5-76.5 0-0.7 0-1.3-0.1-2 0-0.7 0.1-1.4 0.1-2z"/>
					<path id="circle42" fill-rule="evenodd" class="s0" d="m274.7 429.1c-40.37 0-73-32.63-73-73 0-40.37 32.63-73 73-73 40.37 0 73 32.63 73 73 0 40.37-32.63 73-73 73z"/>
					<path id="circle43" fill-rule="evenodd" class="s2" d="m274.7 407.6c-28.48 0-51.5-23.02-51.5-51.5 0-28.48 23.02-51.5 51.5-51.5 28.48 0 51.5 23.02 51.5 51.5 0 28.48-23.02 51.5-51.5 51.5z"/>
					<path id="path43" class="s1" d="m607.8 360.1c0-42.2-34.3-76.5-76.5-76.5-42.2 0-76.5 34.3-76.5 76.5 0 0.7 0 1.3 0.1 2 0 0.7-0.1 1.3-0.1 2 0 42.2 34.3 76.5 76.5 76.5 42.2 0 76.5-34.3 76.5-76.5 0-0.7 0-1.3-0.1-2 0.1-0.7 0.1-1.4 0.1-2z"/>
					<path id="circle44" fill-rule="evenodd" class="s0" d="m531.3 429.1c-40.37 0-73-32.63-73-73 0-40.37 32.63-73 73-73 40.37 0 73 32.63 73 73 0 40.37-32.63 73-73 73z"/>
					<path id="circle45" fill-rule="evenodd" class="s2" d="m531.3 407.6c-28.48 0-51.5-23.02-51.5-51.5 0-28.48 23.02-51.5 51.5-51.5 28.48 0 51.5 23.02 51.5 51.5 0 28.48-23.02 51.5-51.5 51.5z"/>
					<path id="path45" class="s3" d="m534.8 128.1c-0.4-3.2-3.3-5.6-6.5-5.6h-125.3-125.3c-3.2 0-6.1 2.3-6.5 5.6-0.1 0.7-0.1 1.4-0.1 2.1v127.4c0 8.9 7.2 16.1 16.1 16.1h115.8 115.8c8.9 0 16.1-7.2 16.1-16.1v-127.4c0.1-0.7 0-1.4-0.1-2.1z"/>
					<g id="g48">
						<path id="path46" class="s2" d="m530.4 124.4c0-1-0.8-1.9-1.9-1.9h-125.5-125.6c-1 0-1.9 0.8-1.9 1.9v6 123.2c0 8.6 7 15.6 15.6 15.6h111.9 111.9c8.6 0 15.6-7 15.6-15.6v-123.1z"/>
						<g id="g47" style="opacity: .12">
							<path id="path47" class="s4" d="m275.5 253.6c0 8.6 7 15.6 15.6 15.6h111.9 111.9c8.6 0 15.6-7 15.6-15.6v-106.5h-254.9v106.5z"/>
						</g>
					</g>
					<path id="circle48" fill-rule="evenodd" class="s2" d="m652.3 339.2c-52.15 0-94.3-42.15-94.3-94.3 0-52.15 42.15-94.3 94.3-94.3 52.15 0 94.3 42.15 94.3 94.3 0 52.15-42.15 94.3-94.3 94.3z"/>
					<g id="g52">
						<path id="circle49" fill-rule="evenodd" class="s2" d="m153.7 339.2c-52.15 0-94.3-42.15-94.3-94.3 0-52.15 42.15-94.3 94.3-94.3 52.15 0 94.3 42.15 94.3 94.3 0 52.15-42.15 94.3-94.3 94.3z"/>
						<path id="path49" class="s1" d="m230.4 254.2l9.5-8.9c0.5-0.5 0.5-1.2 0-1.7l-9.5-8.9c-0.7-0.7-1.9-0.2-1.9 0.8v8.9 8.9c-0.1 1 1.1 1.5 1.9 0.9z"/>
						<path id="path50" class="s1" d="m145 169.9h8.9 8.9c1 0 1.5-1.2 0.8-1.9l-8.9-9.5c-0.5-0.5-1.2-0.5-1.7 0l-8.9 9.5c-0.6 0.7-0.1 1.9 0.9 1.9z"/>
						<path id="path51" class="s1" d="m77.5 234.7l-9.5 8.9c-0.5 0.5-0.5 1.2 0 1.7l9.5 8.9c0.7 0.7 1.9 0.2 1.9-0.8v-8.9-8.9c0-1-1.2-1.6-1.9-0.9z"/>
						<path id="path52" class="s1" d="m162.8 318.9h-8.9-8.9c-1 0-1.5 1.2-0.8 1.9l8.9 9.5c0.5 0.5 1.2 0.5 1.7 0l8.9-9.5c0.6-0.7 0.1-1.9-0.9-1.9z"/>
					</g>
				</g>
			</g>
		</g>
		<g id="g60">
			<g id="g57">
				<g id="g56">
					<path id="path55" class="s5" d="m697.2 110c0-0.8-0.4-1.5-1.1-1.9-4.5-2.9-23.4-13.6-51.5-13.6-26.9 0-41.1 5.9-45.1 8-0.8 0.4-1.2 1.2-1.2 2 0 0 9.8-2.9 47.5-2.9 37.7 0 51.4 8.4 51.4 8.4z"/>
					<path id="path56" class="s6" d="m697.1 116.9v-6.9c0 0-13.7-8.4-51.4-8.4-37.8 0-47.5 2.9-47.5 2.9v11c7.7-1.3 21.2-2.6 44.1-2.6 28.5 0.1 45.9 2.4 54.8 4z"/>
				</g>
			</g>
			<g id="g59">
				<g id="g58">
					<path id="path57" class="s5" d="m108.8 110c0-0.8 0.4-1.5 1.1-1.9 4.5-2.9 23.4-13.6 51.5-13.6 26.9 0 41.1 5.9 45.1 8 0.8 0.4 1.2 1.2 1.2 2 0 0-9.8-2.9-47.5-2.9-37.7 0-51.4 8.4-51.4 8.4z"/>
					<path id="path58" class="s6" d="m108.9 116.9v-6.9c0 0 13.7-8.4 51.4-8.4 37.8 0 47.5 2.9 47.5 2.9v11c-7.7-1.3-21.2-2.6-44.1-2.6-28.5 0.1-45.9 2.4-54.8 4z"/>
				</g>
			</g>
		</g>
		<g id="g72">
			<g id="g71">
				<g id="g62">
					<g id="g61">
					</g>
				</g>
				<g id="g65">
					<g id="g64">
					</g>
				</g>
				<g id="g67">
					<g id="g66">
					</g>
				</g>
				<g id="g70">
					<g id="g69">
					</g>
				</g>
			</g>
		</g>
		<g id="g84">
			<g id="g78">
				<path id="circle72" fill-rule="evenodd" class="s4" d="m403 320.6c-2.27 0-4.1-1.83-4.1-4.1 0-2.27 1.83-4.1 4.1-4.1 2.27 0 4.1 1.83 4.1 4.1 0 2.27-1.83 4.1-4.1 4.1z"/>
				<path id="circle73" fill-rule="evenodd" class="s4" d="m403 299.7c-2.27 0-4.1-1.83-4.1-4.1 0-2.27 1.83-4.1 4.1-4.1 2.27 0 4.1 1.83 4.1 4.1 0 2.27-1.83 4.1-4.1 4.1z"/>
				<path id="circle74" fill-rule="evenodd" class="s4" d="m396.1 309.9c-2.27 0-4.1-1.83-4.1-4.1 0-2.27 1.83-4.1 4.1-4.1 2.27 0 4.1 1.83 4.1 4.1 0 2.27-1.83 4.1-4.1 4.1z"/>
				<path id="circle75" fill-rule="evenodd" class="s4" d="m381.4 309.9c-2.27 0-4.1-1.83-4.1-4.1 0-2.27 1.83-4.1 4.1-4.1 2.27 0 4.1 1.83 4.1 4.1 0 2.27-1.83 4.1-4.1 4.1z"/>
				<path id="circle76" fill-rule="evenodd" class="s4" d="m388.7 320.6c-2.27 0-4.1-1.83-4.1-4.1 0-2.27 1.83-4.1 4.1-4.1 2.27 0 4.1 1.83 4.1 4.1 0 2.27-1.83 4.1-4.1 4.1z"/>
				<path id="circle77" fill-rule="evenodd" class="s4" d="m388.7 299.7c-2.27 0-4.1-1.83-4.1-4.1 0-2.27 1.83-4.1 4.1-4.1 2.27 0 4.1 1.83 4.1 4.1 0 2.27-1.83 4.1-4.1 4.1z"/>
				<path id="circle78" fill-rule="evenodd" class="s4" d="m374.4 299.7c-2.27 0-4.1-1.83-4.1-4.1 0-2.27 1.83-4.1 4.1-4.1 2.27 0 4.1 1.83 4.1 4.1 0 2.27-1.83 4.1-4.1 4.1z"/>
			</g>
			<g id="g83">
				<path id="circle79" fill-rule="evenodd" class="s4" d="m409.9 309.9c-2.27 0-4.1-1.83-4.1-4.1 0-2.27 1.83-4.1 4.1-4.1 2.27 0 4.1 1.83 4.1 4.1 0 2.27-1.83 4.1-4.1 4.1z"/>
				<path id="circle80" fill-rule="evenodd" class="s4" d="m424.6 309.9c-2.27 0-4.1-1.83-4.1-4.1 0-2.27 1.83-4.1 4.1-4.1 2.27 0 4.1 1.83 4.1 4.1 0 2.27-1.83 4.1-4.1 4.1z"/>
				<path id="circle81" fill-rule="evenodd" class="s4" d="m417.2 320.6c-2.27 0-4.1-1.83-4.1-4.1 0-2.27 1.83-4.1 4.1-4.1 2.27 0 4.1 1.83 4.1 4.1 0 2.27-1.83 4.1-4.1 4.1z"/>
				<path id="circle82" fill-rule="evenodd" class="s4" d="m417.2 299.7c-2.27 0-4.1-1.83-4.1-4.1 0-2.27 1.83-4.1 4.1-4.1 2.27 0 4.1 1.83 4.1 4.1 0 2.27-1.83 4.1-4.1 4.1z"/>
				<path id="circle83" fill-rule="evenodd" class="s4" d="m431.6 299.7c-2.27 0-4.1-1.83-4.1-4.1 0-2.27 1.83-4.1 4.1-4.1 2.27 0 4.1 1.83 4.1 4.1 0 2.27-1.83 4.1-4.1 4.1z"/>
			</g>
		</g>
		<g id="g87">
			<path id="circle84" fill-rule="evenodd" class="s7" d="m403 382.3c-11.17 0-20.2-9.03-20.2-20.2 0-11.17 9.03-20.2 20.2-20.2 11.17 0 20.2 9.03 20.2 20.2 0 11.17-9.03 20.2-20.2 20.2z"/>
			<g id="g86">
				<path id="path84" class="s3" d="m404.1 368.7v-2.8-3.5-6.5c0-0.5 0.1-0.8 0.3-1 0.1-0.2 0.4-0.3 0.7-0.2 0.6 0.2 0.9 0.7 0.9 1.7v6.9c0.8 0.4 1.5 0.5 2.1 0.5 0.6 0 1.2-0.2 1.6-0.5 1-0.7 1.5-1.9 1.5-3.7 0-1.9-0.4-3.4-1.2-4.3-0.8-1-2.1-1.9-4.1-2.6-1.3-0.4-2.5-0.8-3.6-1.1-1.1-0.3-2-0.5-2.9-0.7v12.2 2.7 1.7 2.5 1.5l4.7 1.5v-3.6z"/>
				<path id="path85" class="s3" d="m399 367.7l-1.7 0.6-0.9 0.4-1.6 0.3-1.5-0.2c-0.3-0.2-0.4-0.4-0.2-0.6 0.1-0.1 0.2-0.1 0.3-0.2 0.1-0.1 0.3-0.1 0.4-0.2l1.1-0.4 4.1-1.5v-2.7l-1.7 0.5-5.5 2-1 0.4c-1.5 0.6-2.2 1.2-2.2 1.8 0.1 0.8 1 1.5 2.7 1.9 0.7 0.2 1.4 0.3 2.1 0.4 0.7 0.1 1.4 0.1 2.2 0.1q1.5 0 3.3-0.3z"/>
				<path id="path86" class="s3" d="m414.8 365.4c-0.9-0.3-1.7-0.5-2.5-0.6-0.8-0.1-1.7-0.2-2.5-0.1-0.9 0-1.9 0.2-2.8 0.3-0.8 0.2-1.7 0.4-2.6 0.8v2.8l3.9-1.4 1.6-0.5 1.1-0.3h1.4c0.3 0.1 0.6 0.2 0.7 0.4 0 0.2-0.2 0.4-0.8 0.6l-1.4 0.5-6.5 2.4v2.7l3.5-1.3 6.4-2.3 0.7-0.4c1.5-0.5 2.2-1.2 2.2-1.9 0-0.6-0.8-1.2-2.4-1.7z"/>
			</g>
		</g>
		<path id="path87" class="s6" d="m105.2 544.6c-40.5-2.8-75.8-20.3-87.3-30.5-11.5-10.2-17.5-31.5-17.5-31.5-0.4 15-0.4 26.3-0.4 26.3 0 0 4.5 53.4 36.2 74.9 31.7 21.5 56.7 14 56.7 14 0 0 33.1-8.2 57.8-41.9 4.5-6.2 9.3-14.5 14.1-23.8-0.1-0.1-19.2 15.2-59.6 12.5z"/>
		<path id="path88" class="s6" d="m700.8 544.6c40.5-2.8 75.8-20.3 87.3-30.5 11.5-10.2 17.5-31.5 17.5-31.5 0.4 15 0.4 26.3 0.4 26.3 0 0-4.5 53.4-36.2 74.9-31.7 21.5-56.7 14-56.7 14 0 0-33.1-8.2-57.8-41.9-4.5-6.2-9.3-14.5-14.1-23.8 0.1-0.1 19.2 15.2 59.6 12.5z"/>
		<g id="g108">
			<g id="g91">
				<path id="path89" class="s8" d="m105.2 544.6c-40.5-2.8-75.8-20.3-87.3-30.5-11.5-10.2-17.5-31.5-17.5-31.5-0.4 15-0.4 26.3-0.4 26.3 0 0 4.5 53.4 36.2 74.9 31.7 21.5 56.7 14 56.7 14 0 0 33.1-8.2 57.8-41.9 4.5-6.2 9.3-14.5 14.1-23.8-0.1-0.1-19.2 15.2-59.6 12.5z"/>
				<path id="path90" class="s9" d="m105.2 544.6c-40.5-2.8-75.8-20.3-87.3-30.5-11.5-10.2-17.5-31.5-17.5-31.5-0.4 15-0.4 26.3-0.4 26.3 0 0 4.5 53.4 36.2 74.9 31.7 21.5 56.7 14 56.7 14 0 0 33.1-8.2 57.8-41.9 4.5-6.2 9.3-14.5 14.1-23.8-0.1-0.1-19.2 15.2-59.6 12.5z"/>
				<path id="path91" class="s10" d="m90 592.6c-12.5 1.8-31.3-2-45.1-7.7-13.6-5.7-24-16.4-24-16.4 4.2 5.8 9.3 11.1 15.3 15.2 31.7 21.5 56.7 14 56.7 14 0 0 11.7-2.9 26.3-12.3 0 0-14.6 5.2-29.2 7.2z"/>
			</g>
			<g id="g94">
				<path id="path92" class="s8" d="m700.8 544.6c40.5-2.8 75.8-20.3 87.3-30.5 11.5-10.2 17.5-31.5 17.5-31.5 0.4 15 0.4 26.3 0.4 26.3 0 0-4.5 53.4-36.2 74.9-31.7 21.5-56.7 14-56.7 14 0 0-33.1-8.2-57.8-41.9-4.5-6.2-9.3-14.5-14.1-23.8 0.1-0.1 19.2 15.2 59.6 12.5z"/>
				<path id="path93" class="s9" d="m700.8 544.6c40.5-2.8 75.8-20.3 87.3-30.5 11.5-10.2 17.5-31.5 17.5-31.5 0.4 15 0.4 26.3 0.4 26.3 0 0-4.5 53.4-36.2 74.9-31.7 21.5-56.7 14-56.7 14 0 0-33.1-8.2-57.8-41.9-4.5-6.2-9.3-14.5-14.1-23.8 0.1-0.1 19.2 15.2 59.6 12.5z"/>
				<path id="path94" class="s10" d="m716 592.6c12.5 1.8 31.3-2 45.1-7.7 13.6-5.7 24-16.4 24-16.4-4.2 5.8-9.3 11.1-15.3 15.2-31.7 21.5-56.7 14-56.7 14 0 0-11.7-2.9-26.3-12.3 0 0 14.6 5.2 29.2 7.2z"/>
			</g>
			<g id="g97">
				<g id="g96">
					<path id="path95" class="s4" d="m240.5 141.9c-7.8 0-14.2 6.4-14.2 14.2v18.3c0 7.8 6.4 14.2 14.2 14.2 7.8 0 14.2-6.4 14.2-14.2v-18.3c0-7.9-6.4-14.2-14.2-14.2zm0 1.7c6.9 0 12.5 5.6 12.5 12.5v18.3c0 6.9-5.6 12.5-12.5 12.5-6.9 0-12.5-5.6-12.5-12.5v-18.3c0-6.9 5.6-12.5 12.5-12.5z"/>
					<path id="path96" class="s6" d="m240.5 143.6c-6.9 0-12.5 5.6-12.5 12.5v18.3c0 6.9 5.6 12.5 12.5 12.5 6.9 0 12.5-5.6 12.5-12.5v-18.3c0-6.9-5.6-12.5-12.5-12.5z"/>
				</g>
			</g>
			<g id="g99">
				<g id="g98">
					<path id="path97" class="s4" d="m565.5 141.9c-7.8 0-14.2 6.4-14.2 14.2v18.3c0 7.8 6.4 14.2 14.2 14.2 7.8 0 14.2-6.4 14.2-14.2v-18.3c0-7.9-6.4-14.2-14.2-14.2zm0 1.7c6.9 0 12.5 5.6 12.5 12.5v18.3c0 6.9-5.6 12.5-12.5 12.5-6.9 0-12.5-5.6-12.5-12.5v-18.3c0-6.9 5.6-12.5 12.5-12.5z"/>
					<path id="path98" class="s6" d="m565.5 143.6c-6.9 0-12.5 5.6-12.5 12.5v18.3c0 6.9 5.6 12.5 12.5 12.5 6.9 0 12.5-5.6 12.5-12.5v-18.3c0-6.9-5.6-12.5-12.5-12.5z"/>
				</g>
			</g>
			<g id="g107">
				<g id="g100">
				</g>
				<g id="g102">
				</g>
				<g id="g104">
				</g>
				<g id="g106">
				</g>
			</g>
		</g>
		<path id="path108" class="s6" d="m436.6 421.1h-67.9c-2.8 0-4.6 0.6-4.6-2.2 0-2.8 2.3-5 5-5h67.9c2.8 0 5 2.3 5 5 0.1 2.7-2.6 2.2-5.4 2.2z"/>
		<path id="path109" class="s4" d="m408.3 418.9h-36.5c-0.5 0-0.9-0.4-0.9-0.9 0-1.1 0.9-2 2-2h34.2c1.1 0 2 0.9 2 2 0.1 0.5-0.3 0.9-0.8 0.9z"/>
		<path id="path110" class="s4" d="m430.5 419.7h-4.2c-0.9 0-1.7-0.8-1.7-1.7 0-1.6 1.3-2.8 2.8-2.8h1.9c1.6 0 2.8 1.3 2.8 2.8 0.1 1-0.6 1.7-1.6 1.7z"/>
		<g id="g115">
			<path id="path111" class="s2" d="m534.8 128.1c-0.4-3.2-3.3-5.6-6.5-5.6h-125.3-125.3c-3.2 0-6.1 2.3-6.5 5.6-0.1 0.7-0.1 1.4-0.1 2.1v127.4c0 8.9 7.2 16.1 16.1 16.1h115.8 115.8c8.9 0 16.1-7.2 16.1-16.1v-127.4c0.1-0.7 0-1.4-0.1-2.1z"/>
			<g id="g114">
				<path id="path112" class="s6" d="m530.4 124.4c0-1-0.8-1.9-1.9-1.9h-125.5-125.6c-1 0-1.9 0.8-1.9 1.9v6 123.2c0 8.6 7 15.6 15.6 15.6h111.9 111.9c8.6 0 15.6-7 15.6-15.6v-123.1z"/>
				<g id="g113" style="opacity: .2">
					<path id="path113" class="s4" d="m275.5 253.6c0 8.6 7 15.6 15.6 15.6h111.9 111.9c8.6 0 15.6-7 15.6-15.6v-106.5h-254.9v106.5z"/>
				</g>
			</g>
		</g>
	</g>
	<g id="g131">
		<g id="g123">
			<g id="g118">
				<g id="g117">
					<path id="path116" class="s6" d="m697.1 90.9c0 0-32.7-3.2-50.6-3.2-17.9 0-48.3 2.4-48.3 2.4 0 0 3.1-44.7 4.8-52 1.6-7.3 7.7-21.3 16.9-27.9 9.2-6.6 12-10.1 22.8-10.1 10.8 0 25.4 6.4 34.6 21.4 9.1 15 19.8 69.4 19.8 69.4z"/>
					<path id="path117" class="s5" d="m598.7 83.3c0 0 26.1-4.4 49-4.4 22.8 0 47.9 4.4 47.9 4.4 1 4.7 1.6 7.6 1.6 7.6 0 0-32.7-3.2-50.6-3.2-17.9 0-48.3 2.4-48.3 2.4 0 0 0-2.7 0.4-6.8z"/>
				</g>
			</g>
		</g>
		<g id="g130">
			<g id="g125">
				<g id="g124">
					<path id="path123" class="s6" d="m108.8 90.9c0 0 32.7-3.2 50.6-3.2 17.9 0 48.3 2.4 48.3 2.4 0 0-3.1-44.7-4.8-52-1.6-7.3-7.7-21.3-16.9-27.9-9.2-6.7-12-10.1-22.8-10.1-10.8 0-25.4 6.4-34.6 21.4-9.1 15-19.8 69.4-19.8 69.4z"/>
					<path id="path124" class="s5" d="m207.2 83.3c0 0-26.1-4.4-49-4.4-22.8 0-47.9 4.4-47.9 4.4-1 4.7-1.6 7.6-1.6 7.6 0 0 32.7-3.2 50.6-3.2 17.9 0 48.3 2.4 48.3 2.4 0 0 0-2.7-0.4-6.8z"/>
				</g>
			</g>
		</g>
	</g>
</svg>