<?xml version="1.0" encoding="UTF-8"?>
<svg xmlns="http://www.w3.org/2000/svg" xmlns:xlink="http://www.w3.org/1999/xlink" width="178.53pt" height="104.03pt" viewBox="0 0 178.53 104.03" version="1.1">
<defs>
<filter id="alpha" filterUnits="objectBoundingBox" x="0%" y="0%" width="100%" height="100%">
  <feColorMatrix type="matrix" in="SourceGraphic" values="0 0 0 0 1 0 0 0 0 1 0 0 0 0 1 0 0 0 1 0"/>
</filter>
<mask id="mask0">
  <g filter="url(#alpha)">
<rect x="0" y="0" width="178.53" height="104.03" style="fill:rgb(0%,0%,0%);fill-opacity:0.25;stroke:none;"/>
  </g>
</mask>
<clipPath id="clip1">
  <rect width="179" height="105"/>
</clipPath>
<g id="surface7" clip-path="url(#clip1)">
<path style=" stroke:none;fill-rule:nonzero;fill:rgb(0%,0%,0%);fill-opacity:1;" d="M 124.519531 20.617188 C 125.917969 18.617188 125.71875 17.71875 125.71875 17.71875 C 125.71875 17.71875 125.917969 16.816406 124.519531 14.816406 C 123.617188 13.523438 117.617188 8.21875 113.316406 4.523438 C 111.21875 8.417969 109.917969 12.917969 109.917969 17.71875 C 109.917969 22.523438 111.117188 27.023438 113.316406 30.917969 C 117.617188 27.21875 123.617188 21.917969 124.519531 20.617188 Z M 124.519531 20.617188 "/>
</g>
<mask id="mask1">
  <g filter="url(#alpha)">
<rect x="0" y="0" width="178.53" height="104.03" style="fill:rgb(0%,0%,0%);fill-opacity:0.25;stroke:none;"/>
  </g>
</mask>
<clipPath id="clip3">
  <path d="M 4 0.00390625 L 31 0.00390625 L 31 16 L 4 16 Z M 4 0.00390625 "/>
</clipPath>
<clipPath id="clip2">
  <rect width="179" height="105"/>
</clipPath>
<g id="surface10" clip-path="url(#clip2)">
<g clip-path="url(#clip3)" clip-rule="nonzero">
<path style=" stroke:none;fill-rule:nonzero;fill:rgb(0%,0%,0%);fill-opacity:1;" d="M 20.617188 1.316406 C 18.617188 -0.078125 17.71875 0.117188 17.71875 0.117188 C 17.71875 0.117188 16.816406 -0.078125 14.816406 1.316406 C 13.519531 2.222656 8.21875 8.21875 4.519531 12.523438 C 8.417969 14.617188 12.917969 15.917969 17.71875 15.917969 C 22.519531 15.917969 27.019531 14.71875 30.917969 12.523438 C 27.21875 8.117188 21.917969 2.117188 20.617188 1.316406 Z M 20.617188 1.316406 "/>
</g>
</g>
<mask id="mask2">
  <g filter="url(#alpha)">
<rect x="0" y="0" width="178.53" height="104.03" style="fill:rgb(0%,0%,0%);fill-opacity:0.25;stroke:none;"/>
  </g>
</mask>
<clipPath id="clip4">
  <rect width="179" height="105"/>
</clipPath>
<g id="surface13" clip-path="url(#clip4)">
<path style=" stroke:none;fill-rule:nonzero;fill:rgb(0%,0%,0%);fill-opacity:1;" d="M 52.21875 49.816406 C 54.21875 51.21875 55.117188 51.023438 55.117188 51.023438 C 55.117188 51.023438 56.019531 51.21875 58.019531 49.816406 C 59.316406 48.917969 64.617188 42.917969 68.316406 38.617188 C 64.417969 36.523438 59.917969 35.21875 55.117188 35.21875 C 50.316406 35.21875 45.816406 36.417969 41.917969 38.617188 C 45.617188 42.917969 50.917969 48.917969 52.21875 49.816406 Z M 52.21875 49.816406 "/>
</g>
<clipPath id="clip5">
  <path d="M 127 0 L 178.53125 0 L 178.53125 36 L 127 36 Z M 127 0 "/>
</clipPath>
<mask id="mask3">
  <g filter="url(#alpha)">
<rect x="0" y="0" width="178.53" height="104.03" style="fill:rgb(0%,0%,0%);fill-opacity:0.25;stroke:none;"/>
  </g>
</mask>
<clipPath id="clip6">
  <rect width="179" height="105"/>
</clipPath>
<g id="surface16" clip-path="url(#clip6)">
<path style=" stroke:none;fill-rule:nonzero;fill:rgb(0%,0%,0%);fill-opacity:1;" d="M 140.019531 4.71875 C 135.71875 8.417969 129.71875 13.71875 128.816406 15.023438 C 127.417969 17.023438 127.617188 17.917969 127.617188 17.917969 C 127.617188 17.917969 127.417969 18.816406 128.816406 20.816406 C 129.71875 22.117188 135.71875 27.417969 140.019531 31.117188 C 142.117188 27.21875 143.417969 22.71875 143.417969 17.917969 C 143.417969 13.117188 142.117188 8.617188 140.019531 4.71875 Z M 140.019531 4.71875 "/>
</g>
<mask id="mask4">
  <g filter="url(#alpha)">
<rect x="0" y="0" width="178.53" height="104.03" style="fill:rgb(0%,0%,0%);fill-opacity:0.25;stroke:none;"/>
  </g>
</mask>
<clipPath id="clip7">
  <rect width="179" height="105"/>
</clipPath>
<g id="surface19" clip-path="url(#clip7)">
<path style=" stroke:none;fill-rule:nonzero;fill:rgb(0%,0%,0%);fill-opacity:1;" d="M 124.519531 73.617188 C 125.917969 71.617188 125.71875 70.71875 125.71875 70.71875 C 125.71875 70.71875 125.917969 69.816406 124.519531 67.816406 C 123.617188 66.523438 117.617188 61.21875 113.316406 57.523438 C 111.21875 61.417969 109.917969 65.917969 109.917969 70.71875 C 109.917969 75.523438 111.117188 80.023438 113.316406 83.917969 C 117.617188 80.21875 123.617188 74.917969 124.519531 73.617188 Z M 124.519531 73.617188 "/>
</g>
<clipPath id="clip8">
  <path d="M 0 53 L 36 53 L 36 104.03125 L 0 104.03125 Z M 0 53 "/>
</clipPath>
<mask id="mask5">
  <g filter="url(#alpha)">
<rect x="0" y="0" width="178.53" height="104.03" style="fill:rgb(0%,0%,0%);fill-opacity:0.25;stroke:none;"/>
  </g>
</mask>
<clipPath id="clip9">
  <rect width="179" height="105"/>
</clipPath>
<g id="surface22" clip-path="url(#clip9)">
<path style=" stroke:none;fill-rule:nonzero;fill:rgb(0%,0%,0%);fill-opacity:1;" d="M 20.617188 54.316406 C 18.617188 52.917969 17.71875 53.117188 17.71875 53.117188 C 17.71875 53.117188 16.816406 52.917969 14.816406 54.316406 C 13.519531 55.21875 8.21875 61.21875 4.519531 65.523438 C 8.417969 67.617188 12.917969 68.917969 17.71875 68.917969 C 22.519531 68.917969 27.019531 67.71875 30.917969 65.523438 C 27.21875 61.117188 21.917969 55.117188 20.617188 54.316406 Z M 20.617188 54.316406 "/>
</g>
<clipPath id="clip10">
  <path d="M 37 53 L 73 53 L 73 104.03125 L 37 104.03125 Z M 37 53 "/>
</clipPath>
<mask id="mask6">
  <g filter="url(#alpha)">
<rect x="0" y="0" width="178.53" height="104.03" style="fill:rgb(0%,0%,0%);fill-opacity:0.25;stroke:none;"/>
  </g>
</mask>
<clipPath id="clip12">
  <path d="M 41 88 L 69 88 L 69 104.03125 L 41 104.03125 Z M 41 88 "/>
</clipPath>
<clipPath id="clip11">
  <rect width="179" height="105"/>
</clipPath>
<g id="surface25" clip-path="url(#clip11)">
<g clip-path="url(#clip12)" clip-rule="nonzero">
<path style=" stroke:none;fill-rule:nonzero;fill:rgb(0%,0%,0%);fill-opacity:1;" d="M 52.21875 102.816406 C 54.21875 104.21875 55.117188 104.023438 55.117188 104.023438 C 55.117188 104.023438 56.019531 104.21875 58.019531 102.816406 C 59.316406 101.917969 64.617188 95.917969 68.316406 91.617188 C 64.417969 89.523438 59.917969 88.21875 55.117188 88.21875 C 50.316406 88.21875 45.816406 89.417969 41.917969 91.617188 C 45.617188 95.917969 50.917969 101.917969 52.21875 102.816406 Z M 52.21875 102.816406 "/>
</g>
</g>
<clipPath id="clip13">
  <path d="M 127 53 L 178.53125 53 L 178.53125 89 L 127 89 Z M 127 53 "/>
</clipPath>
<mask id="mask7">
  <g filter="url(#alpha)">
<rect x="0" y="0" width="178.53" height="104.03" style="fill:rgb(0%,0%,0%);fill-opacity:0.25;stroke:none;"/>
  </g>
</mask>
<clipPath id="clip14">
  <rect width="179" height="105"/>
</clipPath>
<g id="surface24" clip-path="url(#clip14)">
<path style=" stroke:none;fill-rule:nonzero;fill:rgb(0%,0%,0%);fill-opacity:1;" d="M 140.019531 57.617188 C 135.71875 61.316406 129.71875 66.617188 128.816406 67.917969 C 127.417969 69.917969 127.617188 70.816406 127.617188 70.816406 C 127.617188 70.816406 127.417969 71.71875 128.816406 73.71875 C 129.71875 75.023438 135.71875 80.316406 140.019531 84.023438 C 142.117188 80.117188 143.417969 75.617188 143.417969 70.816406 C 143.417969 66.023438 142.117188 61.523438 140.019531 57.617188 Z M 140.019531 57.617188 "/>
</g>
</defs>
<g id="surface1">
<path style=" stroke:none;fill-rule:nonzero;fill:rgb(74.021912%,57.617188%,97.65625%);fill-opacity:1;" d="M 124.519531 20.617188 C 125.917969 18.617188 125.71875 17.71875 125.71875 17.71875 C 125.71875 17.71875 125.917969 16.816406 124.519531 14.816406 C 123.117188 12.816406 109.519531 1.222656 108.816406 0.816406 C 108.117188 0.421875 80.316406 -1.382813 77.417969 2.117188 C 74.519531 5.617188 74.816406 17.71875 74.816406 17.71875 C 74.816406 17.71875 74.519531 29.816406 77.417969 33.316406 C 80.316406 36.816406 108.117188 35.023438 108.816406 34.617188 C 109.519531 34.21875 123.117188 22.617188 124.519531 20.617188 Z M 124.519531 20.617188 "/>
<use xlink:href="#surface7" transform="matrix(1,0,0,1,0,0.00000000000000009)" mask="url(#mask0)"/>
<path style=" stroke:none;fill-rule:nonzero;fill:rgb(74.021912%,57.617188%,97.65625%);fill-opacity:1;" d="M 20.617188 1.316406 C 18.617188 -0.078125 17.71875 0.117188 17.71875 0.117188 C 17.71875 0.117188 16.816406 -0.078125 14.816406 1.316406 C 12.816406 2.722656 1.21875 16.316406 0.816406 17.023438 C 0.417969 17.71875 -1.382813 45.523438 2.117188 48.417969 C 5.617188 51.316406 17.71875 51.023438 17.71875 51.023438 C 17.71875 51.023438 29.816406 51.316406 33.316406 48.417969 C 36.816406 45.523438 35.019531 17.71875 34.617188 17.023438 C 34.21875 16.21875 22.617188 2.617188 20.617188 1.316406 Z M 20.617188 1.316406 "/>
<use xlink:href="#surface10" transform="matrix(1,0,0,1,0,0.00000000000000009)" mask="url(#mask1)"/>
<path style=" stroke:none;fill-rule:nonzero;fill:rgb(74.021912%,57.617188%,97.65625%);fill-opacity:1;" d="M 52.21875 49.816406 C 54.21875 51.21875 55.117188 51.023438 55.117188 51.023438 C 55.117188 51.023438 56.019531 51.21875 58.019531 49.816406 C 60.019531 48.417969 71.617188 34.816406 72.019531 34.117188 C 72.417969 33.417969 74.21875 5.617188 70.71875 2.722656 C 67.21875 -0.183594 55.117188 0.117188 55.117188 0.117188 C 55.117188 0.117188 43.019531 -0.183594 39.519531 2.722656 C 36.019531 5.617188 37.816406 33.417969 38.21875 34.117188 C 38.617188 34.816406 50.21875 48.417969 52.21875 49.816406 Z M 52.21875 49.816406 "/>
<use xlink:href="#surface13" transform="matrix(1,0,0,1,0,0.00000000000000009)" mask="url(#mask2)"/>
<g clip-path="url(#clip5)" clip-rule="nonzero">
<path style=" stroke:none;fill-rule:nonzero;fill:rgb(74.021912%,57.617188%,97.65625%);fill-opacity:1;" d="M 175.917969 2.316406 C 173.019531 -1.183594 145.21875 0.617188 144.519531 1.023438 C 143.816406 1.421875 130.21875 13.023438 128.816406 15.023438 C 127.417969 17.023438 127.617188 17.917969 127.617188 17.917969 C 127.617188 17.917969 127.417969 18.816406 128.816406 20.816406 C 130.21875 22.816406 143.816406 34.417969 144.519531 34.816406 C 145.21875 35.21875 173.019531 37.023438 175.917969 33.523438 C 178.816406 30.023438 178.519531 17.917969 178.519531 17.917969 C 178.519531 17.917969 178.71875 5.816406 175.917969 2.316406 Z M 175.917969 2.316406 "/>
</g>
<use xlink:href="#surface16" transform="matrix(1,0,0,1,0,0.00000000000000009)" mask="url(#mask3)"/>
<path style=" stroke:none;fill-rule:nonzero;fill:rgb(54.492188%,91.40625%,99.21875%);fill-opacity:1;" d="M 124.519531 73.617188 C 125.917969 71.617188 125.71875 70.71875 125.71875 70.71875 C 125.71875 70.71875 125.917969 69.816406 124.519531 67.816406 C 123.117188 65.816406 109.519531 54.21875 108.816406 53.816406 C 108.117188 53.417969 80.316406 51.617188 77.417969 55.117188 C 74.519531 58.617188 74.816406 70.71875 74.816406 70.71875 C 74.816406 70.71875 74.519531 82.816406 77.417969 86.316406 C 80.316406 89.816406 108.117188 88.023438 108.816406 87.617188 C 109.519531 87.21875 123.117188 75.617188 124.519531 73.617188 Z M 124.519531 73.617188 "/>
<use xlink:href="#surface19" transform="matrix(1,0,0,1,0,0.00000000000000009)" mask="url(#mask4)"/>
<g clip-path="url(#clip8)" clip-rule="nonzero">
<path style=" stroke:none;fill-rule:nonzero;fill:rgb(54.492188%,91.40625%,99.21875%);fill-opacity:1;" d="M 20.617188 54.316406 C 18.617188 52.917969 17.71875 53.117188 17.71875 53.117188 C 17.71875 53.117188 16.816406 52.917969 14.816406 54.316406 C 12.816406 55.71875 1.21875 69.316406 0.816406 70.023438 C 0.417969 70.71875 -1.382813 98.523438 2.117188 101.417969 C 5.617188 104.316406 17.71875 104.023438 17.71875 104.023438 C 17.71875 104.023438 29.816406 104.316406 33.316406 101.417969 C 36.816406 98.523438 35.019531 70.71875 34.617188 70.023438 C 34.21875 69.21875 22.617188 55.617188 20.617188 54.316406 Z M 20.617188 54.316406 "/>
</g>
<use xlink:href="#surface22" transform="matrix(1,0,0,1,0,0.00000000000000009)" mask="url(#mask5)"/>
<g clip-path="url(#clip10)" clip-rule="nonzero">
<path style=" stroke:none;fill-rule:nonzero;fill:rgb(54.492188%,91.40625%,99.21875%);fill-opacity:1;" d="M 52.21875 102.816406 C 54.21875 104.21875 55.117188 104.023438 55.117188 104.023438 C 55.117188 104.023438 56.019531 104.21875 58.019531 102.816406 C 60.019531 101.417969 71.617188 87.816406 72.019531 87.117188 C 72.417969 86.417969 74.21875 58.617188 70.71875 55.71875 C 67.21875 52.816406 55.117188 53.117188 55.117188 53.117188 C 55.117188 53.117188 43.019531 52.816406 39.519531 55.71875 C 36.019531 58.617188 37.816406 86.417969 38.21875 87.117188 C 38.617188 87.816406 50.21875 101.417969 52.21875 102.816406 Z M 52.21875 102.816406 "/>
</g>
<use xlink:href="#surface25" transform="matrix(1,0,0,1,0,0.00000000000000009)" mask="url(#mask6)"/>
<g clip-path="url(#clip13)" clip-rule="nonzero">
<path style=" stroke:none;fill-rule:nonzero;fill:rgb(54.492188%,91.40625%,99.21875%);fill-opacity:1;" d="M 175.917969 55.21875 C 173.019531 51.71875 145.21875 53.523438 144.519531 53.917969 C 143.816406 54.316406 130.21875 65.917969 128.816406 67.917969 C 127.417969 69.917969 127.617188 70.816406 127.617188 70.816406 C 127.617188 70.816406 127.417969 71.71875 128.816406 73.71875 C 130.21875 75.71875 143.816406 87.316406 144.519531 87.71875 C 145.21875 88.117188 173.019531 89.917969 175.917969 86.417969 C 178.816406 82.917969 178.519531 70.816406 178.519531 70.816406 C 178.519531 70.816406 178.71875 58.71875 175.917969 55.21875 Z M 175.917969 55.21875 "/>
</g>
<use xlink:href="#surface24" transform="matrix(1,0,0,1,0,0.00000000000000009)" mask="url(#mask7)"/>
</g>
</svg>
